<svg xmlns="http://www.w3.org/2000/svg" viewBox="0 0 12.7 12.7" height="48" width="48"><g transform="rotate(-3.153 5.632 5.638)"><ellipse cx="5.852" cy="7.306" rx="4.235" ry="3.247" fill="#e6e6e6" stroke="#4e5262" stroke-width=".232"/><path d="M6.716 5.869s-4.42.569-5.284.627C1.856 1.57 6.586 1.62 9.4 2.97c2.043 1.025 1.823 3.597 1.719 4.097C10.79 8.64 9.42 9.446 9.42 9.446l-.526-2.72-.811 1.187z" fill="#626254" stroke="#000" stroke-width=".238"/><path d="M3.798 6.663l-1.221-.195M5.438 7.005l1.468.245" fill="none" stroke="#000" stroke-width=".238"/><ellipse cx="3.266" cy="7.056" rx=".12" ry=".135" fill="#363a36" stroke="#4d4d4d" stroke-width=".238"/><ellipse ry=".135" rx=".12" cy="7.552" cx="5.724" fill="#363a36" stroke="#4d4d4d" stroke-width=".238"/><path d="M3.485 8.674s.137.268.282.299c.145.03.447-.124.447-.124s.139.276.336.264c.198-.01.42-.18.42-.18" fill="none" stroke="#4b0000" stroke-width=".238" stroke-linejoin="bevel"/><path d="M4.11 7.961c-.141.165.071.236.071.236" fill="none" stroke="#333" stroke-width=".265"/></g></svg>