<?xml version="1.0" encoding="UTF-8"?>
<svg width="24" height="24" version="1.1" xmlns="http://www.w3.org/2000/svg" xmlns:cc="http://creativecommons.org/ns#" xmlns:dc="http://purl.org/dc/elements/1.1/" xmlns:rdf="http://www.w3.org/1999/02/22-rdf-syntax-ns#">
 <path d="m11.999 1.2719c-6.0743 0-10.999 4.925-10.999 11.001 0 4.8601 3.1516 8.9828 7.5228 10.438 0.55037 0.10062 0.75093-0.23906 0.75093-0.53078 0-0.26067-0.0095-0.95285-0.0148-1.8706-3.0591 0.66449-3.7054-1.4749-3.7054-1.4749-0.49972-1.2702-1.2209-1.6086-1.2209-1.6086-0.99944-0.68273 0.075633-0.66922 0.075633-0.66922 1.1041 0.07833 1.6849 1.1338 1.6849 1.1338 0.98054 1.6808 2.5742 1.1953 3.2009 0.91436 0.09995-0.71109 0.38357-1.196 0.69826-1.4708-2.4426-0.27755-5.0107-1.2223-5.0107-5.4368 0-1.2007 0.42881-2.1826 1.1325-2.9517-0.11346-0.27822-0.49094-1.3965 0.10805-2.9112 0 0 0.92313-0.29578 3.0253 1.1277a10.536 10.536 0 0 1 2.7532-0.37074c0.93326 4e-3 1.8746 0.12628 2.7532 0.37006 2.1002-1.4235 3.022-1.1277 3.022-1.1277 0.60102 1.5147 0.22285 2.633 0.11008 2.9105 0.70434 0.76984 1.1305 1.7517 1.1305 2.9524 0 4.226-2.5722 5.1559-5.0229 5.4281 0.39505 0.33968 0.74688 1.0109 0.74688 2.0374 0 1.4701-0.01348 2.6566-0.01348 3.0172 0 0.29443 0.19786 0.63681 0.75634 0.52943 4.3678-1.4586 7.5168-5.578 7.5168-10.437 2e-6 -6.0757-4.925-11.001-11.001-11.001" fill="#1b1817" fill-rule="evenodd" stroke-width=".6753"/>
</svg>
