<?xml version="1.0" encoding="UTF-8" standalone="no"?>
<svg
   xmlns:dc="http://purl.org/dc/elements/1.1/"
   xmlns:cc="http://creativecommons.org/ns#"
   xmlns:rdf="http://www.w3.org/1999/02/22-rdf-syntax-ns#"
   xmlns:svg="http://www.w3.org/2000/svg"
   xmlns="http://www.w3.org/2000/svg"
   xmlns:sodipodi="http://sodipodi.sourceforge.net/DTD/sodipodi-0.dtd"
   xmlns:inkscape="http://www.inkscape.org/namespaces/inkscape"
   sodipodi:docname="noimage.svg"
   inkscape:version="1.0 (4035a4fb49, 2020-05-01)"
   id="svg8"
   version="1.1"
   viewBox="0 0 6.35 6.35"
   height="24"
   width="24">
  <defs
     id="defs2" />
  <sodipodi:namedview
     inkscape:window-maximized="1"
     inkscape:window-y="-8"
     inkscape:window-x="1912"
     inkscape:window-height="1027"
     inkscape:window-width="1920"
     inkscape:snap-page="true"
     width="24px"
     units="px"
     showgrid="false"
     inkscape:document-rotation="0"
     inkscape:current-layer="layer1"
     inkscape:document-units="mm"
     inkscape:cy="14.47735"
     inkscape:cx="20.357143"
     inkscape:zoom="22.4"
     inkscape:pageshadow="2"
     inkscape:pageopacity="0.0"
     borderopacity="1.0"
     bordercolor="#666666"
     pagecolor="#ffffff"
     id="base" />
  <metadata
     id="metadata5">
    <rdf:RDF>
      <cc:Work
         rdf:about="">
        <dc:format>image/svg+xml</dc:format>
        <dc:type
           rdf:resource="http://purl.org/dc/dcmitype/StillImage" />
        <dc:title></dc:title>
      </cc:Work>
    </rdf:RDF>
  </metadata>
  <g
     id="layer1"
     inkscape:groupmode="layer"
     inkscape:label="レイヤー 1">
    <circle
       r="3.175"
       cy="3.175"
       cx="3.175"
       id="path901"
       style="fill:#1a1a1a;fill-opacity:0.2;stroke:none;stroke-width:0.264583;stroke-linecap:square" />
    <path
       transform="scale(0.26458333)"
       d="M 12 0 A 12 12 0 0 0 0 12 A 12 12 0 0 0 12 24 A 12 12 0 0 0 24 12 A 12 12 0 0 0 12 0 z M 17.089844 3.3535156 C 20.006722 3.3535156 21.990234 5.3501646 21.990234 8.8417969 C 21.990234 12.218245 20.147492 14.283238 17.40625 14.431641 A 5.9285709 5.9285709 0 0 1 17.091797 15.037109 C 17.253125 15.133921 17.399043 15.24084 17.515625 15.357422 L 16.902344 16.095703 C 16.786945 15.98992 16.666048 15.897082 16.525391 15.830078 A 5.9285709 5.9285709 0 0 1 14.794922 17.228516 C 14.799466 18.176842 15.223094 18.728516 16.111328 18.728516 C 16.286048 18.728516 16.468729 18.683123 16.572266 18.605469 L 16.572266 17.830078 L 15.808594 17.830078 L 15.808594 16.884766 L 17.599609 16.884766 L 17.599609 19.136719 C 17.263114 19.460272 16.669086 19.724609 15.996094 19.724609 C 14.785281 19.724609 13.820304 19.031783 13.644531 17.695312 A 5.9285709 5.9285709 0 0 1 13.433594 17.751953 L 14.017578 19.634766 L 12.800781 19.634766 L 12.521484 18.527344 L 11.097656 18.527344 L 10.820312 19.634766 L 9.7636719 19.634766 L 9.7636719 19.244141 L 9.6425781 19.634766 L 8.7089844 19.634766 L 8.7089844 17.984375 C 8.7089844 17.696048 8.7423977 17.332553 8.78125 16.976562 A 5.9285709 5.9285709 0 0 1 8.6347656 16.878906 L 8.4296875 17.466797 L 7.7832031 19.226562 L 7.1484375 19.226562 L 6.4960938 17.466797 L 6.1074219 16.314453 L 6.0800781 16.314453 C 6.1383169 16.786842 6.2304688 17.505515 6.2304688 17.984375 L 6.2304688 19.634766 L 5.1953125 19.634766 L 5.1953125 14.820312 L 6.4433594 14.820312 L 7.2070312 16.896484 C 7.3040975 17.174741 7.3820597 17.479674 7.4726562 17.777344 L 7.5039062 17.777344 C 7.6009721 17.479674 7.6789362 17.174741 7.7695312 16.896484 L 7.9667969 16.34375 A 5.9285709 5.9285709 0 0 1 6.0722656 12 A 5.9285709 5.9285709 0 0 1 6.8222656 9.1191406 L 6.8046875 9.0859375 L 5.7558594 6.7441406 L 5.6855469 6.7441406 C 5.8005012 7.9367554 6.015625 9.4021159 6.015625 10.695312 L 6.015625 14.244141 L 3.5722656 14.244141 L 3.5722656 3.5546875 L 6.1875 3.5546875 L 8.2089844 7.4433594 A 5.9285709 5.9285709 0 0 1 9.6210938 6.5703125 L 9.6210938 3.5546875 L 12.064453 3.5546875 L 12.064453 6.0722656 A 5.9285709 5.9285709 0 0 1 12.699219 6.1132812 C 13.465988 4.327877 15.048105 3.3535156 17.089844 3.3535156 z M 12.699219 6.1132812 C 12.370563 6.8785496 12.189453 7.7899051 12.189453 8.8417969 C 12.189453 12.347798 14.172966 14.445313 17.089844 14.445312 C 17.197627 14.445313 17.30107 14.437335 17.40625 14.431641 A 5.9285709 5.9285709 0 0 0 17.927734 12.041016 C 17.674485 12.160239 17.397414 12.232422 17.089844 12.232422 C 15.681696 12.232422 14.820313 10.925281 14.820312 8.8417969 C 14.820313 8.1034402 14.93347 7.4781295 15.138672 6.9726562 A 5.9285709 5.9285709 0 0 0 12.699219 6.1132812 z M 15.138672 6.9726562 A 5.9285709 5.9285709 0 0 1 17.927734 12 A 5.9285709 5.9285709 0 0 1 17.927734 12.041016 C 18.833934 11.6144 19.375 10.470202 19.375 8.8417969 C 19.375 6.7726817 18.497992 5.5507812 17.089844 5.5507812 C 16.184188 5.5507813 15.508513 6.0616293 15.138672 6.9726562 z M 12.064453 6.0722656 A 5.9285709 5.9285709 0 0 0 12 6.0722656 A 5.9285709 5.9285709 0 0 0 11.900391 6.0722656 A 5.9285709 5.9285709 0 0 0 9.6210938 6.5703125 L 9.6210938 7.0878906 C 9.6210937 8.3667187 9.8231106 9.9058753 9.9667969 11.041016 L 9.8945312 11.041016 L 8.8457031 8.6699219 L 8.2089844 7.4433594 A 5.9285709 5.9285709 0 0 0 6.8222656 9.1191406 L 9.4492188 14.244141 L 12.064453 14.244141 L 12.064453 6.0722656 z M 7.9667969 16.34375 A 5.9285709 5.9285709 0 0 0 8.6347656 16.878906 L 8.8320312 16.314453 L 8.8574219 16.314453 C 8.8342444 16.502411 8.8069244 16.741319 8.78125 16.976562 A 5.9285709 5.9285709 0 0 0 9.7636719 17.490234 L 9.7636719 14.820312 L 8.5078125 14.820312 L 7.9667969 16.34375 z M 9.7636719 17.490234 L 9.7636719 19.244141 L 10.253906 17.664062 A 5.9285709 5.9285709 0 0 1 9.7636719 17.490234 z M 10.253906 17.664062 A 5.9285709 5.9285709 0 0 0 12 17.927734 A 5.9285709 5.9285709 0 0 0 13.433594 17.751953 L 12.521484 14.820312 L 11.136719 14.820312 L 10.253906 17.664062 z M 13.644531 17.695312 A 5.9285709 5.9285709 0 0 0 14.794922 17.228516 C 14.794897 17.223418 14.792969 17.219965 14.792969 17.214844 C 14.792969 16.276537 15.303806 15.71875 16.015625 15.71875 C 16.21809 15.71875 16.382098 15.761819 16.525391 15.830078 A 5.9285709 5.9285709 0 0 0 17.091797 15.037109 C 16.79643 14.859863 16.432745 14.730469 15.976562 14.730469 C 14.688819 14.730469 13.607422 15.649078 13.607422 17.253906 C 13.607422 17.410586 13.625848 17.553257 13.644531 17.695312 z M 3.5507812 14.820312 L 4.7089844 14.820312 L 4.7089844 19.634766 L 3.5507812 19.634766 L 3.5507812 14.820312 z M 17.949219 14.820312 L 21.001953 14.820312 L 21.001953 15.777344 L 19.107422 15.777344 L 19.107422 16.669922 L 20.71875 16.669922 L 20.71875 17.640625 L 19.107422 17.640625 L 19.107422 18.664062 L 21.074219 18.664062 L 21.074219 19.634766 L 17.949219 19.634766 L 17.949219 14.820312 z M 11.791016 15.681641 L 11.816406 15.681641 C 11.945829 16.173443 12.069796 16.747704 12.199219 17.226562 L 12.302734 17.634766 L 11.318359 17.634766 L 11.421875 17.226562 C 11.544826 16.747704 11.674536 16.186385 11.791016 15.681641 z "
       style="fill:#1a1a1a;fill-opacity:1;stroke:none;stroke-width:0.999999;stroke-linecap:square"
       id="path854" />
  </g>
</svg>
