<?xml version="1.0" encoding="UTF-8"?>
<svg id="White" width="24" height="24" enable-background="new 0 0 400 400" version="1.1" viewBox="0 0 24 24" xml:space="preserve" xmlns="http://www.w3.org/2000/svg" xmlns:cc="http://creativecommons.org/ns#" xmlns:dc="http://purl.org/dc/elements/1.1/" xmlns:rdf="http://www.w3.org/1999/02/22-rdf-syntax-ns#"><path d="m23 12c0 6.0775-4.9225 11-11 11s-11-4.9225-11-11 4.9225-11 11-11 11 4.9225 11 11zm-13.013 5.8025c4.8785 0 7.546-4.0425 7.546-7.546 0-0.1155 0-0.231-0.0055-0.341 0.517-0.374 0.968-0.8415 1.3255-1.375-0.473 0.209-0.9845 0.352-1.5235 0.418 0.55-0.33 0.968-0.847 1.166-1.4685-0.5115 0.3025-1.078 0.5225-1.683 0.6435-0.484-0.517-1.1715-0.836-1.936-0.836-1.463 0-2.651 1.188-2.651 2.651 0 0.209 0.022 0.4125 0.0715 0.605-2.2055-0.11-4.158-1.166-5.467-2.772-0.2255 0.3905-0.3575 0.847-0.3575 1.331 0 0.9185 0.4675 1.7325 1.1825 2.2055-0.4345-0.011-0.8415-0.132-1.199-0.33v0.033c0 1.287 0.913 2.354 2.1285 2.6015-0.22 0.0605-0.4565 0.0935-0.6985 0.0935-0.1705 0-0.3355-0.0165-0.5005-0.0495 0.3355 1.056 1.3145 1.8205 2.475 1.8425-0.9075 0.7095-2.0515 1.133-3.2945 1.133-0.2145 0-0.4235-0.011-0.6325-0.0385 1.1605 0.759 2.5575 1.199 4.0535 1.199" stroke-width=".055"/><metadata><rdf:RDF><cc:Work rdf:about=""><dc:title/></cc:Work></rdf:RDF></metadata></svg>
